<svg xmlns="http://www.w3.org/2000/svg" xmlns:xlink="http://www.w3.org/1999/xlink" width="400px" height="260px" viewBox="0 0 400 260" version="1.1">
    <!-- Generator: Sketch 61.2 (89653) - https://sketch.com -->
    <title>folders-empty-state-aqua</title>
    <desc>Created with Sketch.</desc>
    <g id="folders-empty-state-aqua" stroke="none" stroke-width="1" fill="none" fill-rule="evenodd">
        <g id="Group-3" transform="translate(27.000000, 23.000000)">
            <path d="M108,25 L108,144.5 C108,157.202549 118.297451,167.5 131,167.5 L260.5,167.5 L260.5,184 L84,184 L84,25 L108,25 Z M31.0360581,145.824756 L31.87252,146.104358 C41.869745,149.446096 47.2650831,160.259462 43.9233448,170.256687 C43.8865212,170.36685 43.8486928,170.476674 43.8098642,170.586145 C40.2022136,180.757404 29.1124018,186.164807 18.8769765,182.743446 L18.0405146,182.463845 C8.04328949,179.122107 2.64795142,168.30874 5.98968971,158.311515 C6.02651329,158.201353 6.06434174,158.091529 6.10317034,157.982057 C9.71082095,147.810799 20.8006327,142.403396 31.0360581,145.824756 Z M343.067554,140.926012 L343.070886,140.931847 C350.364405,153.705263 345.922071,169.972728 333.148655,177.266247 C332.95479,177.376942 332.759541,177.485196 332.562955,177.590981 L331.825972,177.987561 C318.449916,185.185387 301.774336,180.405518 294.242467,167.214669 L294.239134,167.208833 C286.945615,154.435417 291.38795,138.167952 304.161366,130.874433 C304.35523,130.763738 304.550479,130.655485 304.747066,130.549699 L305.484049,130.153119 C318.860105,122.955294 335.535684,127.735162 343.067554,140.926012 Z M266.846207,2.04523925 L267.253013,2.2732462 C274.584249,6.3822626 277.196374,15.6564198 273.087358,22.987656 C273.023673,23.1012814 272.958532,23.2140845 272.891951,23.3260372 L272.882371,23.3421456 C268.447283,30.7994994 258.876605,33.3629817 251.307834,29.1208317 L250.901028,28.8928248 C243.569792,24.7838084 240.957666,15.5096512 245.066683,8.17841491 C245.130368,8.06478951 245.195509,7.95198648 245.26209,7.84003371 L245.27167,7.82392537 C249.706758,0.366571566 259.277436,-2.19691076 266.846207,2.04523925 Z" id="Combined-Shape" fill="#F6FBFF"/>
            <path d="M155.247588,27.1174396 L155.443654,27.4409449 L166.442,46 L248,46 C258.380578,46 266.816833,54.3246359 266.997058,64.6622002 L267,65 L267,101 C267,103.761424 264.761424,106 262,106 C259.311245,106 257.118182,103.877693 257.00462,101.21689 L257,101 L257,65 C257,60.1181973 253.113186,56.1442086 248.265362,56.0038371 L248,56 L163,56 C160.37276,56 158.21879,53.9736936 158.01566,51.3986522 L146.840739,32.5389688 C145.245578,29.847135 142.371536,28.1833341 139.257362,28.1285801 L138.955276,28.1283239 L90.968258,28.8900226 C89.9258412,28.9065689 89.0801007,29.7184518 89.005369,30.7421501 L89,30.8897707 L89,173 C89,177.881803 92.8868137,181.855791 97.7346377,181.996163 L98,182 L248,182 C252.881803,182 256.855791,178.113186 256.996163,173.265362 L257,173 L257,150.138672 C257,147.377248 259.238576,145.138672 262,145.138672 C264.688755,145.138672 266.881818,147.260979 266.99538,149.921782 L267,150.138672 L267,173 C267,183.380578 258.675364,191.816833 248.3378,191.997058 L248,192 L98,192 C87.6194221,192 79.1831671,183.675364 79.0029425,173.3378 L79,173 L79,30.8897707 C79,24.4374292 84.0966977,19.1599227 90.5080664,18.8997865 L90.8095478,18.8912821 L138.796566,18.1295834 C145.488157,18.0233677 151.732004,21.4445141 155.247588,27.1174396 Z M300.196058,165.841771 C304.314845,165.841771 307.682169,169.114577 307.682169,173.187925 C307.682169,177.261274 304.314845,180.534079 300.196058,180.534079 C296.077271,180.534079 292.709947,177.261274 292.709947,173.187925 C292.709947,169.114577 296.077271,165.841771 300.196058,165.841771 Z M300.196058,170.841771 C298.807339,170.841771 297.709947,171.90836 297.709947,173.187925 C297.709947,174.467491 298.807339,175.534079 300.196058,175.534079 C301.584777,175.534079 302.682169,174.467491 302.682169,173.187925 C302.682169,171.90836 301.584777,170.841771 300.196058,170.841771 Z M6,130 C9.30616625,130 12,132.678329 12,136 C12,139.321671 9.30616625,142 6,142 C2.69383375,142 -9.09494702e-13,139.321671 -9.09494702e-13,136 C-9.09494702e-13,132.678329 2.69383375,130 6,130 Z M6,132.460568 C4.00718473,132.460568 2.40534521,134.053188 2.40534521,136 C2.40534521,137.946812 4.00718473,139.539432 6,139.539432 C7.99281527,139.539432 9.59465479,137.946812 9.59465479,136 C9.59465479,134.053188 7.99281527,132.460568 6,132.460568 Z M290.159992,15.1228194 C295.931031,15.1228194 300.63777,19.6974429 300.63777,25.3766655 C300.63777,31.0558881 295.931031,35.6305117 290.159992,35.6305117 C284.388954,35.6305117 279.682215,31.0558881 279.682215,25.3766655 C279.682215,19.6974429 284.388954,15.1228194 290.159992,15.1228194 Z M290.159992,20.1228194 C287.119021,20.1228194 284.682215,22.4912262 284.682215,25.3766655 C284.682215,28.2621049 287.119021,30.6305117 290.159992,30.6305117 C293.200964,30.6305117 295.63777,28.2621049 295.63777,25.3766655 C295.63777,22.4912262 293.200964,20.1228194 290.159992,20.1228194 Z M12.0572147,11.2458963 C15.6252509,11.2458963 18.5461036,14.0847623 18.5461036,17.6228194 C18.5461036,21.1608765 15.6252509,23.9997424 12.0572147,23.9997424 C8.48917839,23.9997424 5.56832577,21.1608765 5.56832577,17.6228194 C5.56832577,14.0847623 8.48917839,11.2458963 12.0572147,11.2458963 Z M12.0572147,16.2458963 C11.2192459,16.2458963 10.5683258,16.8785455 10.5683258,17.6228194 C10.5683258,18.3670932 11.2192459,18.9997424 12.0572147,18.9997424 C12.8951834,18.9997424 13.5461036,18.3670932 13.5461036,17.6228194 C13.5461036,16.8785455 12.8951834,16.2458963 12.0572147,16.2458963 Z" id="Combined-Shape" fill="#D4E5F8" fill-rule="nonzero"/>
            <path d="M74,80.8728171 C75.0543618,80.8728171 75.9181651,81.6886949 75.9945143,82.7235548 L76,82.8728171 L76,172.872817 C76,181.075392 82.385364,192.597999 87.8067995,192.867984 L88,192.872817 C89.1045695,192.872817 90,193.768248 90,194.872817 C90,195.977387 89.1045695,196.872817 88,196.872817 C79.788781,196.872817 72.1588929,183.371211 72.0024483,173.189884 L72,172.872817 L72,82.8728171 C72,81.7682476 72.8954305,80.8728171 74,80.8728171 Z M251,39 C259.94392,39 272,50.2594581 272,59 C272,60.1045695 271.104569,61 270,61 C268.945638,61 268.081835,60.1841222 268.005486,59.1492623 L268,59 C268,52.6072287 258.029556,43.2212606 251.238348,43.0038466 L251,43 L216,43 C214.895431,43 214,42.1045695 214,41 C214,39.9456382 214.815878,39.0818349 215.850738,39.0054857 L216,39 L251,39 Z" id="Combined-Shape" fill="#3D6BAA" fill-rule="nonzero"/>
        </g>
    </g>
</svg>